# xmcd
#
# Track frame offsets:
#	183
#	15673
#	33300
#	52163
#	66758
#	84385
#	105035
#	128210
#	147015
#	167085
#	183640
#	207015
#	221883
#	241955
#	260835
#	276980
#	303080
#
# Disc length: 4218
#
# Revision: 3
# Processed by: cddbd v1.5.1PL0 Copyright (c) Steve Scherf et al.
# Submitted via: OrangeCD 5.2
# Normalized: r2:DSETVAR1
#
DISCID=f2107811
DTITLE=Various Artist - Greatest Love VI
DYEAR=1900
DGENRE=Blues
TTITLE0=Chris Rea - I can hear your heartbeat
TTITLE1=Natalie Cole - Miss you like crazy
TTITLE2=Michael Jackson - One day in your life
TTITLE3=Marvin Gaye - I heard it through the grapevine
TTITLE4=Bryan Ferry - I put a spell on you
TTITLE5=Oleta Adams - Get here
TTITLE6=Sinead O'Connor - Nothing compares 2 you
TTITLE7=Chris De Burgh - The lady in red
TTITLE8=Zucchero Featuring Paul Young - Senza una donna (Without a woman)
TTITLE9=Righteous Brothers - You've lost that lovin' feeling
TTITLE10=Eurythmics - Angel
TTITLE11=Nilsson - Without you
TTITLE12=Joan Armatrading - Love and affection
TTITLE13=Cliff Richard - The best of me
TTITLE14=Beverley Craven - Promise me
TTITLE15=Michael Crawford - The music of the night
TTITLE16=Luciano Pavarotti - Nessun dorma
EXTD=
EXTT0=
EXTT1=
EXTT2=
EXTT3=
EXTT4=
EXTT5=
EXTT6=
EXTT7=
EXTT8=
EXTT9=
EXTT10=
EXTT11=
EXTT12=
EXTT13=
EXTT14=
EXTT15=
EXTT16=
PLAYORDER=
